P3
030 030 255
025 004 004
024 003 003
024 003 003
024 002 002
023 002 002
023 002 002
023 001 001
022 001 001
022 001 001
022 001 001
022 001 001
022 000 000
021 000 000
021 000 000
021 000 000
021 000 000
021 000 000
021 000 000
021 000 000
021 000 000
021 000 000
021 000 000
021 000 000
021 000 000
021 000 000
021 000 000
021 000 000
021 000 000
021 000 000
021 000 000
024 003 003
024 003 003
023 002 002
023 002 002
023 002 002
023 001 001
022 001 001
022 001 001
022 001 001
022 001 001
022 000 000
021 000 000
021 000 000
021 000 000
021 000 000
021 000 000
021 000 000
021 000 000
021 000 000
021 000 000
021 000 000
021 000 000
021 000 000
021 000 000
021 000 000
021 000 000
021 000 000
021 000 000
021 000 000
021 000 000
024 003 003
023 002 002
023 002 002
023 002 002
022 001 001
022 001 001
022 001 001
022 001 001
022 001 001
022 000 000
021 000 000
021 000 000
021 000 000
021 000 000
021 000 000
021 000 000
021 000 000
021 000 000
021 000 000
021 000 000
021 000 000
021 000 000
021 000 000
021 000 000
021 000 000
021 000 000
021 000 000
021 000 000
021 000 000
021 000 000
023 002 002
023 002 002
023 002 002
022 001 001
022 001 001
022 001 001
022 001 001
022 001 001
021 000 000
021 000 000
021 000 000
021 000 000
021 000 000
021 000 000
214 255 255
033 081 092
033 081 092
021 000 000
021 000 000
021 000 000
021 000 000
021 000 000
021 000 000
021 000 000
021 000 000
021 000 000
021 000 000
021 000 000
021 000 000
021 000 000
023 002 002
023 002 002
022 001 001
213 255 018
194 108 008
220 118 007
022 001 001
021 000 000
021 000 000
021 000 000
021 000 000
021 000 000
021 000 000
110 113 199
184 047 191
076 019 064
074 018 061
021 000 000
021 000 000
021 000 000
021 000 000
021 000 000
021 000 000
255 001 255
255 045 255
255 022 255
021 000 000
021 000 000
021 000 000
021 000 000
023 001 001
022 001 001
188 255 015
255 255 087
255 255 171
090 035 000
021 000 000
021 000 000
021 000 000
021 000 000
021 000 000
021 000 000
021 000 000
021 000 000
105 000 076
047 001 015
047 001 015
021 000 000
021 000 000
021 000 000
021 000 000
021 000 000
021 000 000
075 255 255
166 255 255
064 255 255
000 171 171
021 000 000
021 000 000
021 000 000
022 001 001
026 164 169
129 164 005
229 255 067
255 255 159
255 255 188
084 091 000
021 000 000
021 000 000
021 000 000
021 000 000
021 000 000
021 000 000
021 000 000
021 000 000
021 000 000
021 000 000
021 000 000
021 000 000
021 000 000
021 000 000
021 000 000
127 120 244
255 051 255
255 059 255
193 022 199
116 013 128
021 000 000
021 000 000
021 000 000
022 001 001
025 169 180
062 158 157
105 084 176
216 255 067
255 255 118
092 099 004
021 000 000
021 000 000
021 000 000
021 000 000
021 000 000
021 000 000
021 000 000
021 000 000
021 000 000
021 000 000
021 000 000
021 000 000
021 000 000
021 000 000
021 000 000
021 000 000
082 059 144
053 079 140
042 069 117
025 019 046
021 000 000
021 000 000
021 000 000
022 001 001
022 001 001
021 082 098
035 014 061
142 172 014
131 157 012
088 091 002
180 000 155
251 255 224
250 003 223
021 000 000
021 000 000
021 000 000
021 000 000
021 000 000
021 000 000
021 000 000
021 000 000
021 000 000
021 000 000
021 000 000
021 000 000
021 000 000
001 042 069
003 041 060
001 028 042
021 000 000
021 000 000
021 000 000
021 000 000
255 255 234
253 255 235
021 039 072
021 018 026
103 110 001
089 087 000
068 054 000
027 000 001
153 160 127
251 255 224
250 003 223
250 002 223
250 002 223
021 000 000
021 000 000
210 127 003
210 127 003
211 130 003
211 129 004
211 130 004
211 130 004
255 196 005
255 161 000
021 000 000
021 000 000
021 000 000
021 000 000
021 000 000
021 000 000
021 000 000
255 255 233
255 255 232
255 008 230
253 007 228
154 007 129
062 000 000
023 000 000
026 000 000
027 000 000
125 000 098
251 255 224
251 255 225
250 002 225
249 002 224
248 002 223
218 255 012
218 255 012
238 255 028
255 255 041
255 255 044
252 255 033
212 131 003
210 129 004
255 185 004
021 000 000
021 000 000
021 000 000
021 000 000
021 000 000
021 000 000
255 255 232
255 010 232
255 009 231
255 255 229
255 008 228
254 007 228
253 255 227
125 125 098
125 000 098
126 000 098
252 255 225
252 255 225
251 003 224
251 002 224
250 255 223
217 255 023
217 255 023
240 255 041
255 255 061
255 255 080
255 255 092
255 255 085
255 255 046
209 130 003
255 192 009
244 144 000
021 000 000
021 000 000
021 000 000
021 000 000
255 012 233
255 255 233
255 011 232
255 255 231
255 255 229
255 008 229
255 007 228
255 255 227
254 255 226
253 005 226
253 255 225
252 004 225
252 003 224
251 255 224
164 253 001
130 200 002
130 200 002
222 255 035
246 255 054
255 255 077
255 255 105
255 255 133
255 255 139
255 255 091
210 131 003
096 061 000
021 000 000
021 000 000
021 000 000
021 000 000
255 014 235
255 013 234
255 255 233
255 011 232
255 255 231
255 255 230
255 008 229
255 255 228
255 007 227
254 255 227
254 255 226
253 005 225
255 255 255
255 002 255
150 233 001
131 200 002
131 204 002
130 199 002
130 196 002
242 255 056
255 255 083
255 255 122
255 255 168
255 255 193
255 255 136
136 211 010
089 140 000
021 000 000
021 000 000
021 000 000
255 016 237
255 014 236
255 255 234
255 012 234
255 255 232
255 010 231
255 255 255
255 004 255
255 255 255
255 003 255
255 003 255
255 255 255
255 255 255
255 255 255
028 013 106
133 203 001
133 203 001
133 204 001
131 200 001
129 199 001
003 058 000
001 001 000
000 000 000
000 000 000
255 255 242
255 255 159
170 255 007
064 100 000
021 000 000
021 000 000
255 255 255
255 255 255
255 255 255
255 008 255
255 007 255
255 007 255
255 255 255
255 255 255
255 005 255
255 255 255
255 004 255
255 255 255
255 003 255
255 255 255
255 255 255
255 191 255
255 191 255
255 255 255
134 203 001
001 202 211
001 201 211
001 200 205
108 255 255
096 255 255
065 255 255
032 255 255
055 096 000
000 000 000
000 158 158
000 144 145
255 255 255
255 255 255
255 255 255
255 008 255
255 007 255
255 007 255
255 255 255
255 255 255
255 005 255
255 255 255
255 004 255
255 255 255
255 003 255
255 255 255
255 255 255
255 191 255
255 191 255
255 255 255
134 203 001
001 202 211
001 201 211
001 200 205
108 255 255
096 255 255
065 255 255
032 255 255
055 096 000
000 000 000
000 158 158
000 144 145
255 255 255
255 010 255
255 255 255
255 009 255
255 255 255
255 007 255
255 007 255
255 006 255
255 255 255
255 005 255
255 255 255
255 004 255
255 255 255
255 003 255
255 255 255
067 000 000
067 000 000
056 000 000
047 000 000
001 208 218
000 034 044
000 013 017
001 198 205
188 255 255
122 255 255
060 255 255
020 243 242
003 173 172
000 154 153
000 130 130
185 226 177
255 255 255
255 010 255
255 255 255
255 255 255
255 255 255
255 008 255
255 255 255
255 006 255
255 255 255
255 005 255
255 255 255
255 255 255
255 255 255
255 003 255
002 000 000
002 000 000
107 000 000
076 000 000
000 217 223
000 093 094
000 007 009
002 000 000
001 199 206
120 255 255
053 255 255
015 204 204
001 162 162
000 141 141
000 118 118
021 000 000
185 000 177
255 255 255
255 011 255
255 255 255
255 009 255
255 255 255
255 008 255
255 255 255
255 006 255
255 255 255
255 005 255
255 255 255
255 255 255
255 255 255
255 003 255
255 003 255
158 000 153
155 000 153
000 214 227
000 147 148
255 255 255
255 255 255
000 200 209
060 255 255
021 198 198
003 160 160
000 142 143
000 124 125
000 100 101
021 000 000
021 000 000
185 226 177
255 255 255
255 255 255
255 255 255
255 009 255
255 255 255
255 008 255
255 007 255
255 006 255
255 006 255
255 255 255
255 255 255
255 255 255
255 255 255
255 255 255
255 003 255
255 003 255
000 208 232
010 222 223
102 048 064
096 056 062
000 216 219
010 166 170
002 149 152
000 136 138
000 121 123
000 102 105
000 071 076
021 000 000
021 000 000
185 226 177
255 255 255
255 255 255
255 011 255
255 255 255
255 009 255
255 009 255
255 008 255
255 007 255
255 255 255
255 255 255
255 255 255
255 255 255
255 004 255
255 004 255
255 003 255
255 255 255
255 003 255
008 255 255
004 107 107
004 117 117
000 212 221
000 135 140
000 123 129
000 112 117
000 096 102
000 079 085
000 034 048
021 000 000
021 000 000
021 000 000
185 226 177
255 013 255
255 255 255
255 011 255
255 010 255
255 255 255
255 009 255
255 255 255
255 255 255
255 255 255
255 255 255
255 005 255
255 004 255
255 004 255
255 004 255
255 255 255
255 003 255
000 224 240
000 214 238
000 219 230
000 216 228
000 104 117
000 097 110
000 081 098
000 060 076
000 046 058
005 000 000
021 000 000
021 000 000
021 000 000
021 000 000
185 226 177
255 013 255
255 012 255
255 255 255
255 010 255
255 255 255
255 255 255
255 008 255
255 255 255
255 007 255
255 006 255
255 005 255
255 005 255
255 255 255
255 255 255
255 255 255
255 255 255
000 225 243
000 225 240
000 214 232
000 075 089
000 058 081
000 030 077
000 000 000
001 000 000
157 000 153
021 000 000
021 000 000
021 000 000
021 000 000
185 226 177
255 255 255
255 255 255
255 255 255
255 255 255
255 255 255
255 010 255
255 009 255
255 008 255
255 007 255
255 255 255
255 255 255
255 255 255
255 255 255
255 004 255
255 255 255
255 003 255
255 003 255
154 195 153
000 000 000
000 000 000
000 000 000
154 195 153
154 196 154
155 197 154
155 000 154
021 000 000
021 000 000
021 000 000
021 000 000
021 000 000
185 226 177
255 014 255
255 013 255
255 255 255
255 011 255
255 010 255
255 255 255
255 009 255
255 255 255
255 255 255
255 255 255
255 255 255
255 005 255
255 005 255
255 255 255
255 004 255
255 003 255
255 255 255
255 255 255
255 255 255
155 200 157
155 000 157
156 000 157
156 000 158
157 000 158
021 000 000
021 000 000
021 000 000
021 000 000
021 000 000
021 000 000
185 000 177
255 255 255
255 255 255
255 255 255
255 255 255
255 010 255
255 009 255
255 255 255
255 008 255
255 255 255
255 255 255
255 006 255
255 255 255
255 255 255
255 255 255
255 255 255
255 255 255
255 003 255
255 002 255
255 002 255
255 002 255
255 255 255
255 255 255
255 001 255
021 000 000
021 000 000
021 000 000
021 000 000
021 000 000
021 000 000
021 000 000
185 000 177
255 014 255
255 013 255
255 012 255
255 011 255
255 255 255
255 255 255
255 009 255
255 255 255
255 255 255
255 006 255
255 255 255
255 005 255
255 004 255
255 004 255
255 003 255
255 003 255
255 255 255
255 255 255
255 255 255
255 255 255
255 255 255
255 001 255
021 000 000
021 000 000
021 000 000
021 000 000
021 000 000
021 000 000
021 000 000
185 000 177
255 255 255
255 255 255
255 255 255
255 255 255
255 255 255
255 010 255
255 009 255
255 008 255
255 008 255
255 007 255
255 255 255
255 006 255
255 005 255
255 255 255
255 255 255
255 003 255
255 255 255
255 003 255
255 002 255
255 002 255
083 105 083
083 000 083
021 000 000
021 000 000
021 000 000
021 000 000
021 000 000
021 000 000
021 000 000
021 000 000
185 226 177
255 015 255
255 014 255
255 013 255
255 012 255
255 011 255
255 255 255
255 255 255
255 255 255
255 255 255
255 255 255
255 006 255
255 005 255
255 255 255
255 004 255
255 004 255
255 255 255
083 105 083
083 000 083
083 000 083
083 105 083
021 000 000
